<svg width="668" height="222" viewBox="0 0 668 222" fill="none" xmlns="http://www.w3.org/2000/svg">
<path d="M248.086 127.661V429.404" stroke="#E5F860" stroke-width="1.5"/>
<path d="M278.971 127.661V412.523" stroke="#E5F860" stroke-width="1.5"/>
<path d="M309.854 127.661V412.523" stroke="#E5F860" stroke-width="1.5"/>
<path d="M340.738 127.661V380.872" stroke="#E5F860" stroke-width="1.5"/>
<path d="M371.617 127.661V380.872" stroke="#E5F860" stroke-width="1.5"/>
<path d="M402.5 127.661V380.872" stroke="#E5F860" stroke-width="1.5"/>
<path d="M433.383 127.661V380.872" stroke="#E5F860" stroke-width="1.5"/>
<path d="M464.262 127.661V380.872" stroke="#E5F860" stroke-width="1.5"/>
<path d="M495.146 127.661V412.523" stroke="#E5F860" stroke-width="1.5"/>
<path d="M526.029 127.661V412.523" stroke="#E5F860" stroke-width="1.5"/>
<path d="M556.914 127.661V412.523" stroke="#E5F860" stroke-width="1.5"/>
<path d="M217.209 127.661V575" stroke="#E5F860" stroke-width="1.5"/>
<path d="M186.324 127.661V535.963" stroke="#E5F860" stroke-width="1.5"/>
<path d="M155.441 127.661V495.872" stroke="#E5F860" stroke-width="1.5"/>
<path d="M155.441 127.661H556.912" stroke="#E5F860" stroke-width="1.5"/>
<path d="M155.441 159.311H556.912" stroke="#E5F860" stroke-width="1.5"/>
<path d="M155.441 190.964H556.912" stroke="#E5F860" stroke-width="1.5"/>
<path d="M155.441 222.614H556.912" stroke="#E5F860" stroke-width="1.5"/>
<path d="M278.968 96.0103H248.086V127.662H278.968V96.0103Z" stroke="#E5F860" stroke-width="1.5"/>
<path d="M309.853 96.0103H278.971V127.662H309.853V96.0103Z" stroke="#E5F860" stroke-width="1.5"/>
<path d="M155.439 96.0103H124.557V127.662H155.439V96.0103Z" stroke="#E5F860" stroke-width="1.5"/>
<path d="M309.853 64.3575H278.971V96.0089H309.853V64.3575Z" stroke="#E5F860" stroke-width="1.5"/>
<path d="M309.853 96.0103H278.971V127.662H309.853V96.0103Z" stroke="#E5F860" stroke-width="1.5"/>
<path d="M155.439 96.0103H124.557V127.662H155.439V96.0103Z" stroke="#E5F860" stroke-width="1.5"/>
<path d="M309.853 64.3575H278.971V96.0089H309.853V64.3575Z" stroke="#E5F860" stroke-width="1.5"/>
<path d="M309.853 96.0103H278.971V127.662H309.853V96.0103Z" stroke="#E5F860" stroke-width="1.5"/>
<path d="M155.439 96.0103H124.557V127.662H155.439V96.0103Z" stroke="#E5F860" stroke-width="1.5"/>
<path d="M309.853 64.3575H278.971V96.0089H309.853V64.3575Z" stroke="#E5F860" stroke-width="1.5"/>
<path d="M155.439 222.614H124.557V254.265H155.439V222.614Z" stroke="#E5F860" stroke-width="1.5"/>
<path d="M340.736 96.0103H309.854V127.662H340.736V96.0103Z" stroke="#E5F860" stroke-width="1.5"/>
<path d="M186.324 96.0103H155.441V127.662H186.324V96.0103Z" stroke="#E5F860" stroke-width="1.5"/>
<path d="M155.439 159.311H124.557V190.962H155.439V159.311Z" stroke="#E5F860" stroke-width="1.5"/>
<path d="M340.736 64.3575H309.854V96.0089H340.736V64.3575Z" stroke="#E5F860" stroke-width="1.5"/>
<path d="M155.439 190.964H124.557V222.615H155.439V190.964Z" stroke="#E5F860" stroke-width="1.5"/>
<path d="M93.6773 190.964H62.7949V222.615H93.6773V190.964Z" stroke="#E5F860" stroke-width="1.5"/>
<path d="M124.56 190.964H93.6777V222.615H124.56V190.964Z" stroke="#E5F860" stroke-width="1.5"/>
<path d="M278.968 32.7072H248.086V64.3586H278.968V32.7072Z" stroke="#E5F860" stroke-width="1.5"/>
<path d="M155.439 127.661H124.557V159.312H155.439V127.661Z" stroke="#E5F860" stroke-width="1.5"/>
<path d="M124.56 159.311H93.6777V190.962H124.56V159.311Z" stroke="#E5F860" stroke-width="1.5"/>
<path d="M371.621 96.0103H340.738V127.662H371.621V96.0103Z" stroke="#E5F860" stroke-width="1.5"/>
<path d="M217.207 96.0103H186.324V127.662H217.207V96.0103Z" stroke="#E5F860" stroke-width="1.5"/>
<path d="M371.621 64.3575H340.738V96.0089H371.621V64.3575Z" stroke="#E5F860" stroke-width="1.5"/>
<path d="M309.853 32.7072H278.971V64.3586H309.853V32.7072Z" stroke="#E5F860" stroke-width="1.5"/>
<path d="M402.5 96.0103H371.617V127.662H402.5V96.0103Z" stroke="#E5F860" stroke-width="1.5"/>
<path d="M248.091 96.0103H217.209V127.662H248.091V96.0103Z" stroke="#E5F860" stroke-width="1.5"/>
<path d="M402.5 64.3575H371.617V96.0089H402.5V64.3575Z" stroke="#E5F860" stroke-width="1.5"/>
<path d="M217.207 64.3575H186.324V96.0089H217.207V64.3575Z" stroke="#E5F860" stroke-width="1.5"/>
<path d="M340.736 32.7072H309.854V64.3586H340.736V32.7072Z" stroke="#E5F860" stroke-width="1.5"/>
<path d="M309.853 1.05444H278.971V32.7058H309.853V1.05444Z" stroke="#E5F860" stroke-width="1.5"/>
<path d="M371.621 32.7072H340.738V64.3586H371.621V32.7072Z" stroke="#E5F860" stroke-width="1.5"/>
<path d="M340.736 1.05444H309.854V32.7058H340.736V1.05444Z" stroke="#E5F860" stroke-width="1.5"/>
<path d="M402.5 32.7072H371.617V64.3586H402.5V32.7072Z" stroke="#E5F860" stroke-width="1.5"/>
<path d="M371.621 1.05444H340.738V32.7058H371.621V1.05444Z" stroke="#E5F860" stroke-width="1.5"/>
<path d="M433.382 96.0103H402.5V127.662H433.382V96.0103Z" stroke="#E5F860" stroke-width="1.5"/>
<path d="M433.382 64.3575H402.5V96.0089H433.382V64.3575Z" stroke="#E5F860" stroke-width="1.5"/>
<path d="M248.091 64.3575H217.209V96.0089H248.091V64.3575Z" stroke="#E5F860" stroke-width="1.5"/>
<path d="M464.265 96.0103H433.383V127.662H464.265V96.0103Z" stroke="#E5F860" stroke-width="1.5"/>
<path d="M464.265 64.3575H433.383V96.0089H464.265V64.3575Z" stroke="#E5F860" stroke-width="1.5"/>
<path d="M278.968 64.3575H248.086V96.0089H278.968V64.3575Z" stroke="#E5F860" stroke-width="1.5"/>
<path d="M495.144 96.0103H464.262V127.662H495.144V96.0103Z" stroke="#E5F860" stroke-width="1.5"/>
<path d="M526.029 96.0103H495.146V127.662H526.029V96.0103Z" stroke="#E5F860" stroke-width="1.5"/>
</svg>
