<svg width="66" height="66" viewBox="0 0 66 66" fill="none" xmlns="http://www.w3.org/2000/svg">
<path d="M63.8327 32.9997C63.8327 40.733 60.966 47.8664 56.2327 53.233C51.4994 58.6664 44.8994 62.433 37.4327 63.4664C35.9994 63.6997 34.5327 63.7997 32.9993 63.7997C31.466 63.7997 30.0327 63.6997 28.566 63.4664C21.0993 62.433 14.4993 58.6664 9.76601 53.233C5.03268 47.8664 2.16602 40.733 2.16602 32.9997C2.16602 25.2664 5.03268 18.133 9.76601 12.7664C14.4993 7.33304 21.0993 3.56637 28.566 2.53304C29.9993 2.29971 31.466 2.19971 32.9993 2.19971C34.5327 2.19971 35.966 2.29971 37.4327 2.53304C44.8994 3.56637 51.4994 7.33304 56.2327 12.7664C60.966 18.133 63.8327 25.2664 63.8327 32.9997Z" stroke="black" stroke-width="4" stroke-linecap="round" stroke-linejoin="round"/>
<path d="M31.8993 63.4993C29.766 61.2659 16.666 50.2326 16.666 32.9993C16.666 15.7659 29.766 4.7326 31.8993 2.49927" stroke="black" stroke-width="4" stroke-linecap="round" stroke-linejoin="round"/>
<path d="M34.1001 63.4993C36.2334 61.2659 49.3334 50.2326 49.3334 32.9993C49.3334 15.7659 36.2334 4.7326 34.1001 2.49927M32.5 2.49927V63.4993" stroke="black" stroke-width="4" stroke-linecap="round" stroke-linejoin="round"/>
<path d="M2.16602 33.0002H63.8327" stroke="black" stroke-width="4" stroke-linecap="round" stroke-linejoin="round"/>
</svg>
