<svg width="14" height="14" viewBox="0 0 14 14" fill="none" xmlns="http://www.w3.org/2000/svg">
<path d="M6.9987 0.166626C7.55212 0.16659 8.08458 0.378329 8.48685 0.758407C8.88912 1.13849 9.1307 1.65809 9.16203 2.21063L9.16537 2.33329H12.6654C12.792 2.33333 12.914 2.38146 13.0066 2.46794C13.0991 2.55443 13.1554 2.67283 13.164 2.79921C13.1727 2.9256 13.133 3.05055 13.0531 3.14883C12.9731 3.2471 12.8589 3.31136 12.7334 3.32863L12.6654 3.33329H12.1347L11.2814 12.0133C11.2386 12.446 11.0434 12.8495 10.7307 13.1516C10.4179 13.4537 10.008 13.6348 9.57403 13.6626L9.4567 13.6666H4.5407C4.10567 13.6666 3.68483 13.5119 3.35337 13.2302C3.02191 12.9484 2.80144 12.558 2.73136 12.1286L2.71603 12.0126L1.86203 3.33329H1.33203C1.21121 3.33329 1.09447 3.28953 1.00341 3.21011C0.912352 3.1307 0.85313 3.021 0.836698 2.90129L0.832031 2.83329C0.832036 2.71247 0.875793 2.59573 0.955209 2.50467C1.03463 2.41361 1.14433 2.35439 1.26403 2.33796L1.33203 2.33329H4.83203C4.83203 1.75866 5.0603 1.20756 5.46663 0.801228C5.87296 0.394899 6.42406 0.166626 6.9987 0.166626ZM11.13 3.33329H2.8667L3.71136 11.9146C3.73007 12.1061 3.81445 12.2852 3.95018 12.4215C4.08591 12.5579 4.26464 12.6431 4.45603 12.6626L4.5407 12.6666H9.4567C9.8567 12.6666 10.196 12.3833 10.2734 11.9986L10.2867 11.9146L11.1294 3.33329H11.13ZM8.16536 5.16663C8.28619 5.16663 8.40293 5.21039 8.49399 5.2898C8.58504 5.36922 8.64427 5.47892 8.6607 5.59863L8.66536 5.66663V10.3333C8.66533 10.46 8.6172 10.5819 8.53072 10.6745C8.44423 10.7671 8.32583 10.8233 8.19944 10.832C8.07306 10.8406 7.9481 10.801 7.84983 10.721C7.75156 10.6411 7.6873 10.5268 7.67003 10.4013L7.66536 10.3333V5.66663C7.66536 5.53402 7.71804 5.40684 7.81181 5.31307C7.90558 5.21931 8.03276 5.16663 8.16536 5.16663ZM5.83203 5.16663C5.95286 5.16663 6.06959 5.21039 6.16065 5.2898C6.25171 5.36922 6.31093 5.47892 6.32736 5.59863L6.33203 5.66663V10.3333C6.33199 10.46 6.28387 10.5819 6.19738 10.6745C6.1109 10.7671 5.9925 10.8233 5.86611 10.832C5.73972 10.8406 5.61477 10.801 5.5165 10.721C5.41823 10.6411 5.35397 10.5268 5.3367 10.4013L5.33203 10.3333V5.66663C5.33203 5.53402 5.38471 5.40684 5.47848 5.31307C5.57225 5.21931 5.69942 5.16663 5.83203 5.16663ZM6.9987 1.16663C6.7059 1.16664 6.42382 1.27674 6.20844 1.47508C5.99305 1.67342 5.86012 1.94549 5.83603 2.23729L5.83203 2.33329H8.16536C8.16536 2.02387 8.04245 1.72713 7.82366 1.50833C7.60486 1.28954 7.30812 1.16663 6.9987 1.16663Z" fill="#121212"/>
</svg>
