<svg width="18" height="18" viewBox="0 0 18 18" fill="none" xmlns="http://www.w3.org/2000/svg">
<path d="M14.9915 3.04102H16.7081" stroke="#121212" stroke-width="1.5" stroke-linecap="round" stroke-linejoin="round"/>
<path d="M1.29102 3.04102H11.566" stroke="#121212" stroke-width="1.5" stroke-linecap="round" stroke-linejoin="round"/>
<path d="M13.2831 4.7418C14.2312 4.7418 14.9998 3.98068 14.9998 3.0418C14.9998 2.10291 14.2312 1.3418 13.2831 1.3418C12.335 1.3418 11.5664 2.10291 11.5664 3.0418C11.5664 3.98068 12.335 4.7418 13.2831 4.7418Z" stroke="#121212" stroke-width="1.5" stroke-linecap="round" stroke-linejoin="round"/>
<path d="M14.9912 14.959H16.7079" stroke="#121212" stroke-width="1.5" stroke-linecap="round" stroke-linejoin="round"/>
<path d="M1.29102 14.959H11.566" stroke="#121212" stroke-width="1.5" stroke-linecap="round" stroke-linejoin="round"/>
<path d="M13.2831 16.6598C14.2312 16.6598 14.9998 15.8987 14.9998 14.9598C14.9998 14.0209 14.2312 13.2598 13.2831 13.2598C12.335 13.2598 11.5664 14.0209 11.5664 14.9598C11.5664 15.8987 12.335 16.6598 13.2831 16.6598Z" stroke="#121212" stroke-width="1.5" stroke-linecap="round" stroke-linejoin="round"/>
<path d="M6.43262 9H16.7076" stroke="#121212" stroke-width="1.5" stroke-linecap="round" stroke-linejoin="round"/>
<path d="M1.29102 9H3.00768" stroke="#121212" stroke-width="1.5" stroke-linecap="round" stroke-linejoin="round"/>
<path d="M4.71569 10.7008C5.66378 10.7008 6.43238 9.93967 6.43238 9.00078C6.43238 8.0619 5.66378 7.30078 4.71569 7.30078C3.7676 7.30078 2.99902 8.0619 2.99902 9.00078C2.99902 9.93967 3.7676 10.7008 4.71569 10.7008Z" stroke="#121212" stroke-width="1.5" stroke-linecap="round" stroke-linejoin="round"/>
</svg>
