<svg width="8" height="6" viewBox="0 0 8 6" fill="none" xmlns="http://www.w3.org/2000/svg">
<path fill-rule="evenodd" clip-rule="evenodd" d="M7.7864 0.213604C7.85411 0.281143 7.90783 0.361376 7.94448 0.449708C7.98113 0.53804 8 0.632735 8 0.728371C8 0.824006 7.98113 0.918701 7.94448 1.00703C7.90783 1.09537 7.85411 1.1756 7.7864 1.24314L3.42397 5.60556C3.35643 5.67327 3.2762 5.72699 3.18787 5.76365C3.09953 5.8003 3.00484 5.81917 2.9092 5.81917C2.81357 5.81917 2.71887 5.8003 2.63054 5.76365C2.54221 5.72699 2.46198 5.67327 2.39444 5.60556L0.213223 3.42435C0.145623 3.35675 0.0919999 3.2765 0.055415 3.18817C0.0188301 3.09985 7.12283e-10 3.00518 0 2.90958C-7.12282e-10 2.81398 0.0188301 2.71932 0.055415 2.63099C0.0919999 2.54267 0.145623 2.46242 0.213223 2.39482C0.280823 2.32722 0.361076 2.27359 0.4494 2.23701C0.537724 2.20042 0.632389 2.18159 0.72799 2.18159C0.823591 2.18159 0.918256 2.20042 1.00658 2.23701C1.0949 2.27359 1.17516 2.32722 1.24276 2.39482L2.9092 4.06272L6.75686 0.213604C6.8244 0.145894 6.90464 0.0921741 6.99297 0.0555204C7.0813 0.0188666 7.17599 0 7.27163 0C7.36726 0 7.46196 0.0188666 7.55029 0.0555204C7.63862 0.0921741 7.71886 0.145894 7.7864 0.213604Z" fill="white"/>
</svg>
