<svg xmlns="http://www.w3.org/2000/svg" xmlns:xlink="http://www.w3.org/1999/xlink"><symbol id="icon-arrow-left" viewBox="0 0 28 28">
<path d="M14.0002 0.666687L16.3502 3.01669L7.05016 12.3334L27.3335 12.3334L27.3335 15.6667L7.05016 15.6667L16.3502 24.9834L14.0002 27.3334L0.66683 14L14.0002 0.666687Z"/>
</symbol><symbol id="icon-arrow-right" viewBox="0 0 20 20">
<path d="M10 0L8.2375 1.7625L15.2125 8.75H0V11.25H15.2125L8.2375 18.2375L10 20L20 10L10 0Z"/>
</symbol><symbol id="icon-arrow-up" viewBox="0 0 16 16">
<path d="M9.5399e-08 8L1.41 9.41L7 3.83L7 16L9 16L9 3.83L14.59 9.41L16 8L8 9.5399e-08L9.5399e-08 8Z"/>
</symbol><symbol id="icon-cart-white" viewBox="0 0 22 26">
<path d="M17.45 7.8623H4.53749C3.19999 7.8623 2.1 8.87481 1.975 10.2123L0.962506 21.7748C0.825006 23.2748 2.01249 24.5748 3.52499 24.5748H18.475C19.9875 24.5748 21.1625 23.2873 21.0375 21.7748L20.025 10.2123C19.9 8.87481 18.7875 7.8623 17.45 7.8623Z" stroke="white" stroke-width="1.5" stroke-linecap="round" stroke-linejoin="round"/>
<path d="M16.1378 11.7125V6.575C16.1378 3.7375 13.8378 1.4375 11.0003 1.4375C8.16277 1.4375 5.86279 3.7375 5.86279 6.575V11.7125" stroke="white" stroke-width="1.5" stroke-linecap="round" stroke-linejoin="round"/>
</symbol><symbol id="icon-cart" viewBox="0 0 22 26">
<path d="M17.45 7.8623H4.53749C3.19999 7.8623 2.1 8.87481 1.975 10.2123L0.962506 21.7748C0.825006 23.2748 2.01249 24.5748 3.52499 24.5748H18.475C19.9875 24.5748 21.1625 23.2873 21.0375 21.7748L20.025 10.2123C19.9 8.87481 18.7875 7.8623 17.45 7.8623Z" stroke="#121212" stroke-width="1.5" stroke-linecap="round" stroke-linejoin="round"/>
<path d="M16.1378 11.7125V6.575C16.1378 3.7375 13.8378 1.4375 11.0003 1.4375C8.16277 1.4375 5.86279 3.7375 5.86279 6.575V11.7125" stroke="#121212" stroke-width="1.5" stroke-linecap="round" stroke-linejoin="round"/>
</symbol><symbol id="icon-check" viewBox="0 0 8 6">
<path fill-rule="evenodd" clip-rule="evenodd" d="M7.7864 0.213604C7.85411 0.281143 7.90783 0.361376 7.94448 0.449708C7.98113 0.53804 8 0.632735 8 0.728371C8 0.824006 7.98113 0.918701 7.94448 1.00703C7.90783 1.09537 7.85411 1.1756 7.7864 1.24314L3.42397 5.60556C3.35643 5.67327 3.2762 5.72699 3.18787 5.76365C3.09953 5.8003 3.00484 5.81917 2.9092 5.81917C2.81357 5.81917 2.71887 5.8003 2.63054 5.76365C2.54221 5.72699 2.46198 5.67327 2.39444 5.60556L0.213223 3.42435C0.145623 3.35675 0.0919999 3.2765 0.055415 3.18817C0.0188301 3.09985 7.12283e-10 3.00518 0 2.90958C-7.12282e-10 2.81398 0.0188301 2.71932 0.055415 2.63099C0.0919999 2.54267 0.145623 2.46242 0.213223 2.39482C0.280823 2.32722 0.361076 2.27359 0.4494 2.23701C0.537724 2.20042 0.632389 2.18159 0.72799 2.18159C0.823591 2.18159 0.918256 2.20042 1.00658 2.23701C1.0949 2.27359 1.17516 2.32722 1.24276 2.39482L2.9092 4.06272L6.75686 0.213604C6.8244 0.145894 6.90464 0.0921741 6.99297 0.0555204C7.0813 0.0188666 7.17599 0 7.27163 0C7.36726 0 7.46196 0.0188666 7.55029 0.0555204C7.63862 0.0921741 7.71886 0.145894 7.7864 0.213604Z"/>
</symbol><symbol id="icon-close" viewBox="0 0 30 30">
<path d="M27.5 2.31445L2.5 27.6894" stroke="#121212" stroke-width="4" stroke-linecap="round" stroke-linejoin="round"/>
<path d="M2.5 2.31445L27.5 27.6894" stroke="#121212" stroke-width="4" stroke-linecap="round" stroke-linejoin="round"/>
</symbol><symbol id="icon-delete" viewBox="0 0 14 14">
<path d="M6.9987 0.166626C7.55212 0.16659 8.08458 0.378329 8.48685 0.758407C8.88912 1.13849 9.1307 1.65809 9.16203 2.21063L9.16537 2.33329H12.6654C12.792 2.33333 12.914 2.38146 13.0066 2.46794C13.0991 2.55443 13.1554 2.67283 13.164 2.79921C13.1727 2.9256 13.133 3.05055 13.0531 3.14883C12.9731 3.2471 12.8589 3.31136 12.7334 3.32863L12.6654 3.33329H12.1347L11.2814 12.0133C11.2386 12.446 11.0434 12.8495 10.7307 13.1516C10.4179 13.4537 10.008 13.6348 9.57403 13.6626L9.4567 13.6666H4.5407C4.10567 13.6666 3.68483 13.5119 3.35337 13.2302C3.02191 12.9484 2.80144 12.558 2.73136 12.1286L2.71603 12.0126L1.86203 3.33329H1.33203C1.21121 3.33329 1.09447 3.28953 1.00341 3.21011C0.912352 3.1307 0.85313 3.021 0.836698 2.90129L0.832031 2.83329C0.832036 2.71247 0.875793 2.59573 0.955209 2.50467C1.03463 2.41361 1.14433 2.35439 1.26403 2.33796L1.33203 2.33329H4.83203C4.83203 1.75866 5.0603 1.20756 5.46663 0.801228C5.87296 0.394899 6.42406 0.166626 6.9987 0.166626ZM11.13 3.33329H2.8667L3.71136 11.9146C3.73007 12.1061 3.81445 12.2852 3.95018 12.4215C4.08591 12.5579 4.26464 12.6431 4.45603 12.6626L4.5407 12.6666H9.4567C9.8567 12.6666 10.196 12.3833 10.2734 11.9986L10.2867 11.9146L11.1294 3.33329H11.13ZM8.16536 5.16663C8.28619 5.16663 8.40293 5.21039 8.49399 5.2898C8.58504 5.36922 8.64427 5.47892 8.6607 5.59863L8.66536 5.66663V10.3333C8.66533 10.46 8.6172 10.5819 8.53072 10.6745C8.44423 10.7671 8.32583 10.8233 8.19944 10.832C8.07306 10.8406 7.9481 10.801 7.84983 10.721C7.75156 10.6411 7.6873 10.5268 7.67003 10.4013L7.66536 10.3333V5.66663C7.66536 5.53402 7.71804 5.40684 7.81181 5.31307C7.90558 5.21931 8.03276 5.16663 8.16536 5.16663ZM5.83203 5.16663C5.95286 5.16663 6.06959 5.21039 6.16065 5.2898C6.25171 5.36922 6.31093 5.47892 6.32736 5.59863L6.33203 5.66663V10.3333C6.33199 10.46 6.28387 10.5819 6.19738 10.6745C6.1109 10.7671 5.9925 10.8233 5.86611 10.832C5.73972 10.8406 5.61477 10.801 5.5165 10.721C5.41823 10.6411 5.35397 10.5268 5.3367 10.4013L5.33203 10.3333V5.66663C5.33203 5.53402 5.38471 5.40684 5.47848 5.31307C5.57225 5.21931 5.69942 5.16663 5.83203 5.16663ZM6.9987 1.16663C6.7059 1.16664 6.42382 1.27674 6.20844 1.47508C5.99305 1.67342 5.86012 1.94549 5.83603 2.23729L5.83203 2.33329H8.16536C8.16536 2.02387 8.04245 1.72713 7.82366 1.50833C7.60486 1.28954 7.30812 1.16663 6.9987 1.16663Z"/>
</symbol><symbol id="icon-filter" viewBox="0 0 18 18">
<path d="M14.9915 3.04102H16.7081" stroke="#121212" stroke-width="1.5" stroke-linecap="round" stroke-linejoin="round"/>
<path d="M1.29102 3.04102H11.566" stroke="#121212" stroke-width="1.5" stroke-linecap="round" stroke-linejoin="round"/>
<path d="M13.2831 4.7418C14.2312 4.7418 14.9998 3.98068 14.9998 3.0418C14.9998 2.10291 14.2312 1.3418 13.2831 1.3418C12.335 1.3418 11.5664 2.10291 11.5664 3.0418C11.5664 3.98068 12.335 4.7418 13.2831 4.7418Z" stroke="#121212" stroke-width="1.5" stroke-linecap="round" stroke-linejoin="round"/>
<path d="M14.9912 14.959H16.7079" stroke="#121212" stroke-width="1.5" stroke-linecap="round" stroke-linejoin="round"/>
<path d="M1.29102 14.959H11.566" stroke="#121212" stroke-width="1.5" stroke-linecap="round" stroke-linejoin="round"/>
<path d="M13.2831 16.6598C14.2312 16.6598 14.9998 15.8987 14.9998 14.9598C14.9998 14.0209 14.2312 13.2598 13.2831 13.2598C12.335 13.2598 11.5664 14.0209 11.5664 14.9598C11.5664 15.8987 12.335 16.6598 13.2831 16.6598Z" stroke="#121212" stroke-width="1.5" stroke-linecap="round" stroke-linejoin="round"/>
<path d="M6.43262 9H16.7076" stroke="#121212" stroke-width="1.5" stroke-linecap="round" stroke-linejoin="round"/>
<path d="M1.29102 9H3.00768" stroke="#121212" stroke-width="1.5" stroke-linecap="round" stroke-linejoin="round"/>
<path d="M4.71569 10.7008C5.66378 10.7008 6.43238 9.93967 6.43238 9.00078C6.43238 8.0619 5.66378 7.30078 4.71569 7.30078C3.7676 7.30078 2.99902 8.0619 2.99902 9.00078C2.99902 9.93967 3.7676 10.7008 4.71569 10.7008Z" stroke="#121212" stroke-width="1.5" stroke-linecap="round" stroke-linejoin="round"/>
</symbol><symbol id="icon-planet" viewBox="0 0 66 66">
<path d="M63.8327 32.9997C63.8327 40.733 60.966 47.8664 56.2327 53.233C51.4994 58.6664 44.8994 62.433 37.4327 63.4664C35.9994 63.6997 34.5327 63.7997 32.9993 63.7997C31.466 63.7997 30.0327 63.6997 28.566 63.4664C21.0993 62.433 14.4993 58.6664 9.76601 53.233C5.03268 47.8664 2.16602 40.733 2.16602 32.9997C2.16602 25.2664 5.03268 18.133 9.76601 12.7664C14.4993 7.33304 21.0993 3.56637 28.566 2.53304C29.9993 2.29971 31.466 2.19971 32.9993 2.19971C34.5327 2.19971 35.966 2.29971 37.4327 2.53304C44.8994 3.56637 51.4994 7.33304 56.2327 12.7664C60.966 18.133 63.8327 25.2664 63.8327 32.9997Z" stroke="black" stroke-width="4" stroke-linecap="round" stroke-linejoin="round"/>
<path d="M31.8993 63.4993C29.766 61.2659 16.666 50.2326 16.666 32.9993C16.666 15.7659 29.766 4.7326 31.8993 2.49927" stroke="black" stroke-width="4" stroke-linecap="round" stroke-linejoin="round"/>
<path d="M34.1001 63.4993C36.2334 61.2659 49.3334 50.2326 49.3334 32.9993C49.3334 15.7659 36.2334 4.7326 34.1001 2.49927M32.5 2.49927V63.4993" stroke="black" stroke-width="4" stroke-linecap="round" stroke-linejoin="round"/>
<path d="M2.16602 33.0002H63.8327" stroke="black" stroke-width="4" stroke-linecap="round" stroke-linejoin="round"/>
</symbol><symbol id="icon-search-white" viewBox="0 0 26 26">
<path d="M11.7125 21.9875C6.0375 21.9875 1.4375 17.3875 1.4375 11.7125C1.4375 6.0375 6.0375 1.4375 11.7125 1.4375C17.3875 1.4375 21.9875 6.0375 21.9875 11.7125C21.9875 17.3875 17.3875 21.9875 11.7125 21.9875Z" stroke="white" stroke-width="1.5" stroke-linecap="round" stroke-linejoin="round"/>
<path d="M24.5628 24.5623L19.4253 19.4248" stroke="white" stroke-width="1.5" stroke-linecap="round" stroke-linejoin="round"/>
</symbol><symbol id="icon-search" viewBox="0 0 26 26">
<path d="M11.7125 21.9875C6.0375 21.9875 1.4375 17.3875 1.4375 11.7125C1.4375 6.0375 6.0375 1.4375 11.7125 1.4375C17.3875 1.4375 21.9875 6.0375 21.9875 11.7125C21.9875 17.3875 17.3875 21.9875 11.7125 21.9875Z" stroke="#121212" stroke-width="1.5" stroke-linecap="round" stroke-linejoin="round"/>
<path d="M24.5628 24.5623L19.4253 19.4248" stroke="#121212" stroke-width="1.5" stroke-linecap="round" stroke-linejoin="round"/>
</symbol><symbol id="icon-sort" viewBox="0 0 20 22">
<path d="M15.4496 1.75H4.53957C2.35957 1.75 1.06955 4.2 2.30955 6C4.17955 8.69 6.05955 11.37 7.92955 14.06V19.24L12.0396 20.25V14.06C13.9096 11.37 15.7896 8.69 17.6596 6C18.9196 4.2 17.6396 1.75 15.4496 1.75Z" stroke="#121212" stroke-width="2" stroke-linecap="round" stroke-linejoin="round"/>
</symbol></svg>